<svg width="210" height="209" viewBox="0 0 210 209" fill="none" xmlns="http://www.w3.org/2000/svg">
<path d="M126.559 73.3954C137.209 62.1838 154.984 61.6747 166.258 72.2582L194.961 99.201L168.2 127.372C157.549 138.584 139.775 139.093 128.5 128.509L99.7974 101.566L126.559 73.3954Z" fill="#3699FF"/>
<path d="M69.0796 80.572C56.5222 71.5473 53.6967 54.0792 62.7687 41.5559L85.5382 10.1243L117.541 33.1239C130.099 42.1486 132.924 59.6166 123.852 72.1399L101.083 103.572L69.0796 80.572Z" fill="#3699FF"/>
<path d="M131.775 124.614C144.481 133.429 147.6 150.849 138.741 163.525L116.509 195.334L84.1249 172.867C71.4191 164.053 68.3003 146.632 77.159 133.957L99.3906 102.148L131.775 124.614Z" fill="#3699FF"/>
<path d="M27.2499 92.3424C34.9807 78.9495 52.1165 74.3389 65.524 82.0445L99.7101 101.692L80.3168 135.289C72.5861 148.682 55.4502 153.293 42.0427 145.587L7.85665 125.94L27.2499 92.3424Z" fill="#3699FF"/>
</svg>
