<svg width="24" height="14" viewBox="0 0 24 14" fill="none" xmlns="http://www.w3.org/2000/svg">
<path d="M22.875 0C23.1734 0 23.4595 0.118526 23.6705 0.329505C23.8815 0.540483 24 0.826631 24 1.125V10.875C24 11.1734 23.8815 11.4595 23.6705 11.6705C23.4595 11.8815 23.1734 12 22.875 12C22.5766 12 22.2905 11.8815 22.0795 11.6705C21.8685 11.4595 21.75 11.1734 21.75 10.875V3.84L12.045 13.545C11.8341 13.7557 11.5481 13.874 11.25 13.874C10.9519 13.874 10.6659 13.7557 10.455 13.545L0.323999 3.414C0.125278 3.20074 0.0170956 2.91867 0.0222397 2.62722C0.0273819 2.33576 0.145449 2.05769 0.351568 1.85157C0.557688 1.64545 0.835766 1.52738 1.12722 1.52224C1.41867 1.51709 1.70074 1.62528 1.914 1.824L11.25 11.1585L20.16 2.25H13.125C12.8266 2.25 12.5405 2.13147 12.3295 1.9205C12.1185 1.70952 12 1.42337 12 1.125C12 0.826631 12.1185 0.540483 12.3295 0.329505C12.5405 0.118526 12.8266 0 13.125 0H22.875Z" fill="#004EA2"/>
</svg>
