<svg width="402" height="158" viewBox="0 0 402 158" fill="none" xmlns="http://www.w3.org/2000/svg">
<path d="M88.8426 41.6355C91.8187 26.7422 106.319 17.0092 121.23 19.8963L159.388 27.2849L151.872 64.8971C148.896 79.7905 134.396 89.5235 119.485 86.6363L81.3268 79.2478L88.8426 41.6355Z" fill="#2C6401" stroke="white"/>
<path d="M43.0787 71.8277C28.1781 68.8881 18.5273 54.4349 21.5231 39.5454L29.0802 1.98583L67.2547 9.51679C82.1554 12.4563 91.8062 26.9096 88.8104 41.799L81.2532 79.3587L43.0787 71.8277Z" fill="#659211" stroke="white"/>
<path d="M118.215 86.8293C133.162 89.5206 143.056 103.812 140.313 118.75L133.393 156.428L95.0948 149.532C80.1473 146.841 70.2538 132.55 72.9971 117.612L79.9163 79.9336L118.215 86.8293Z" fill="#468C2A" stroke="white"/>
<path d="M10.2329 92.1629C13.8593 77.4144 28.7607 68.3756 43.516 71.9742L81.3372 81.1983L72.194 118.383C68.5675 133.132 53.6662 142.171 38.9108 138.572L1.08965 129.348L10.2329 92.1629Z" fill="#B9D602" stroke="white"/>
<path d="M83.9385 67.2093L85.5094 79.8264L97.9943 82.2313L86.4802 87.6242L88.0511 100.241L79.3641 90.9572L67.8499 96.35L73.9952 85.2193L65.3082 75.9352L77.7932 78.3401L83.9385 67.2093Z" fill="white"/>
<g filter="url(#filter0_d_284_17)">
<path d="M210.733 61.9873V58.2973H236.113V61.9873L227.833 62.9773C227.773 66.7573 227.713 70.5973 227.653 74.4973C227.653 78.3973 227.653 82.2973 227.653 86.1973V90.6073C227.653 94.4473 227.653 98.3173 227.653 102.217C227.713 106.057 227.773 109.927 227.833 113.827L236.113 114.817V118.507H210.733V114.817L219.013 113.827C219.133 109.987 219.193 106.087 219.193 102.127C219.193 98.1073 219.193 93.9973 219.193 89.7973H190.123C190.123 94.3573 190.123 98.5873 190.123 102.487C190.183 106.387 190.243 110.197 190.303 113.917L198.493 114.817V118.507H173.113V114.817L181.393 113.827C181.513 110.047 181.573 106.207 181.573 102.307C181.573 98.4073 181.573 94.5073 181.573 90.6073V86.1973C181.573 82.2973 181.573 78.4273 181.573 74.5873C181.573 70.6873 181.513 66.8173 181.393 62.9773L173.113 61.9873V58.2973H198.493V61.9873L190.303 62.8873C190.243 66.7273 190.183 70.5673 190.123 74.4073C190.123 78.2473 190.123 81.9673 190.123 85.5673H219.193C219.193 81.6073 219.193 77.7673 219.193 74.0473C219.193 70.3273 219.133 66.6373 219.013 62.9773L210.733 61.9873ZM268.969 74.3173L269.689 58.2973H319.009L319.729 74.3173H314.509L312.529 62.7973H298.759C298.699 66.6373 298.639 70.5073 298.579 74.4073C298.579 78.3073 298.579 82.2373 298.579 86.1973V90.6073C298.579 94.4473 298.579 98.3173 298.579 102.217C298.639 106.057 298.699 109.927 298.759 113.827L307.939 114.817V118.507H280.759V114.817L289.939 113.827C290.059 109.987 290.119 106.147 290.119 102.307C290.119 98.4073 290.119 94.5073 290.119 90.6073V86.1973C290.119 82.2973 290.119 78.3973 290.119 74.4973C290.119 70.5973 290.059 66.6973 289.939 62.7973H276.169L274.189 74.3173H268.969ZM351.076 118.507V115.267L385.096 62.7973H359.896L357.466 74.3173H351.976L352.696 58.2973H395.086V61.4473L361.156 114.007H389.146L391.576 102.487H397.066L396.346 118.507H351.076Z" fill="black"/>
</g>
<defs>
<filter id="filter0_d_284_17" x="169.113" y="58.2972" width="231.953" height="68.21" filterUnits="userSpaceOnUse" color-interpolation-filters="sRGB">
<feFlood flood-opacity="0" result="BackgroundImageFix"/>
<feColorMatrix in="SourceAlpha" type="matrix" values="0 0 0 0 0 0 0 0 0 0 0 0 0 0 0 0 0 0 127 0" result="hardAlpha"/>
<feOffset dy="4"/>
<feGaussianBlur stdDeviation="2"/>
<feComposite in2="hardAlpha" operator="out"/>
<feColorMatrix type="matrix" values="0 0 0 0 0 0 0 0 0 0 0 0 0 0 0 0 0 0 0.25 0"/>
<feBlend mode="normal" in2="BackgroundImageFix" result="effect1_dropShadow_284_17"/>
<feBlend mode="normal" in="SourceGraphic" in2="effect1_dropShadow_284_17" result="shape"/>
</filter>
</defs>
</svg>
